<svg width="16" height="14" viewBox="0 0 16 14" fill="none" xmlns="http://www.w3.org/2000/svg">
<path d="M8.00002 3.20386L2.2937 7.90811C2.2937 7.91475 2.29203 7.92452 2.2887 7.93783C2.28543 7.95104 2.28369 7.96064 2.28369 7.96745V12.731C2.28369 12.903 2.34657 13.0521 2.4723 13.1776C2.59799 13.3032 2.74683 13.3664 2.91886 13.3664H6.72961V9.5554H9.27047V13.3665H13.0812C13.2532 13.3665 13.4022 13.3034 13.5277 13.1776C13.6535 13.0522 13.7166 12.903 13.7166 12.731V7.96745C13.7166 7.94103 13.7129 7.92108 13.7066 7.90811L8.00002 3.20386Z" fill="#697C9F"/>
<path d="M15.8896 6.83627L13.7164 5.03007V0.980972C13.7164 0.888406 13.6866 0.812281 13.6269 0.752703C13.5676 0.693193 13.4915 0.663439 13.3987 0.663439H11.4933C11.4007 0.663439 11.3246 0.693193 11.265 0.752703C11.2055 0.812281 11.1758 0.888441 11.1758 0.980972V2.91617L8.75431 0.891569C8.54283 0.719541 8.29138 0.633545 8.00023 0.633545C7.70911 0.633545 7.45769 0.719541 7.246 0.891569L0.110278 6.83627C0.0441299 6.88911 0.00787516 6.96023 0.0011317 7.04956C-0.005577 7.13883 0.0175385 7.21679 0.0705476 7.28291L0.685836 8.01732C0.738845 8.07683 0.808226 8.11322 0.894257 8.12653C0.973684 8.13321 1.05311 8.10999 1.13254 8.05708L8.00002 2.33064L14.8676 8.05705C14.9206 8.10321 14.99 8.12626 15.076 8.12626H15.1058C15.1917 8.11319 15.261 8.07655 15.3142 8.01718L15.9296 7.28287C15.9825 7.21662 16.0057 7.13879 15.9988 7.04942C15.992 6.96033 15.9556 6.88921 15.8896 6.83627Z" fill="#697C9F"/>
</svg>
