<svg width="15" height="15" viewBox="0 0 15 15" fill="none" xmlns="http://www.w3.org/2000/svg">
<g clip-path="url(#clip0_1_3445)">
<path d="M7.5 0C3.3544 0 0 3.35476 0 7.5C0 11.6456 3.35476 15 7.5 15C11.6456 15 15 11.6452 15 7.5C15 3.3544 11.6452 0 7.5 0ZM7.5 14C3.91591 14 0.99999 11.0841 0.99999 7.5C0.99999 3.91588 3.91591 0.99999 7.5 0.99999C11.0841 0.99999 14 3.91591 14 7.5C14 11.0841 11.0841 14 7.5 14Z" fill="#697C9F"/>
<path d="M11.4701 4.7441C11.2748 4.54884 10.9582 4.54884 10.7629 4.7441L6.31166 9.19538L4.23686 7.12061C4.04159 6.92534 3.72498 6.92534 3.52975 7.12061C3.33448 7.31587 3.33448 7.63245 3.52975 7.82772L5.95808 10.256C6.15331 10.4513 6.47001 10.4512 6.66519 10.256L11.4701 5.45118C11.6653 5.25592 11.6653 4.93937 11.4701 4.7441Z" fill="#697C9F"/>
</g>
<defs>
<clipPath id="clip0_1_3445">
<rect width="15" height="15" fill="white"/>
</clipPath>
</defs>
</svg>
