<svg width="16" height="16" viewBox="0 0 16 16" fill="none" xmlns="http://www.w3.org/2000/svg">
<path d="M1.99334 15.118H7.97344C8.06473 15.118 8.13787 15.1911 8.13787 15.2824C8.13787 15.3737 8.06473 15.4468 7.97344 15.4468H1.99334C1.17049 15.4468 0.5 14.7764 0.5 13.9535V1.99338C0.5 1.17051 1.1705 0.5 1.99334 0.5H7.97344C8.06467 0.5 8.13787 0.573143 8.13787 0.6645C8.13787 0.755795 8.06473 0.828938 7.97344 0.828938H1.99334C1.35047 0.828938 0.828906 1.35044 0.828906 1.99338V13.9535C0.828906 14.5964 1.3504 15.118 1.99334 15.118Z" stroke="#697C9F"/>
<path d="M11.4107 3.86944L11.4102 3.86892C11.3472 3.80659 11.2429 3.80599 11.1782 3.8715C11.1145 3.93607 11.1151 4.03973 11.1799 4.10348L11.1803 4.10386L14.0673 6.95302L14.9346 7.8089H13.7161H5.97987C5.88857 7.8089 5.81543 7.88204 5.81543 7.97334C5.81543 8.06466 5.8886 8.13781 5.97987 8.13781H13.7161H14.9346L14.0673 8.99369L11.1803 11.8428L11.1799 11.8432C11.1157 11.9064 11.1144 12.0104 11.1787 12.0757C11.1939 12.0911 11.2121 12.1034 11.2321 12.1118C11.2522 12.1202 11.2737 12.1245 11.2955 12.1245C11.3385 12.1245 11.379 12.1086 11.4102 12.0778L11.4107 12.0772L15.4505 8.0906C15.4661 8.0752 15.4785 8.05686 15.487 8.03665C15.4954 8.01643 15.4998 7.99474 15.4998 7.97283L11.4107 3.86944ZM11.4107 3.86944L15.4501 7.85566M11.4107 3.86944L15.4501 7.85566M15.4501 7.85566C15.4501 7.8557 15.4502 7.85574 15.4502 7.85578L15.4501 7.85566Z" stroke="#697C9F"/>
</svg>
