<svg width="18" height="18" viewBox="0 0 18 18" fill="none" xmlns="http://www.w3.org/2000/svg">
<g clip-path="url(#clip0_1_3188)">
<path d="M17.4375 0.28125H4.5C4.42541 0.28125 4.35387 0.310882 4.30113 0.363626C4.24838 0.416371 4.21875 0.487908 4.21875 0.5625V9.82125C4.21875 9.89584 4.24838 9.96738 4.30113 10.0201C4.35387 10.0729 4.42541 10.1025 4.5 10.1025C4.57459 10.1025 4.64613 10.0729 4.69887 10.0201C4.75162 9.96738 4.78125 9.89584 4.78125 9.82125V0.84375H17.1562V17.1562H4.78125C4.78125 17.0817 4.75162 17.0101 4.69887 16.9574C4.64613 16.9046 4.57459 16.875 4.5 16.875C4.42541 16.875 4.35387 16.9046 4.30113 16.9574C4.24838 17.0101 4.21875 17.0817 4.21875 17.1562V17.4375C4.21875 17.5121 4.24838 17.5836 4.30113 17.6364C4.35387 17.6891 4.42541 17.7188 4.5 17.7188H17.4375C17.5121 17.7188 17.5836 17.6891 17.6364 17.6364C17.6891 17.5836 17.7188 17.5121 17.7188 17.4375V0.5625C17.7188 0.487908 17.6891 0.416371 17.6364 0.363626C17.5836 0.310882 17.5121 0.28125 17.4375 0.28125Z" fill="#697C9F"/>
<path d="M11.8125 1.6875H10.125C9.90123 1.6875 9.68661 1.77639 9.52838 1.93463C9.37015 2.09286 9.28125 2.30747 9.28125 2.53125V3.375H8.15625C7.93247 3.375 7.71786 3.46389 7.55963 3.62213C7.4014 3.78036 7.3125 3.99497 7.3125 4.21875V7.03125C7.3125 7.25503 7.4014 7.46964 7.55963 7.62787C7.71786 7.78611 7.93247 7.875 8.15625 7.875H13.7813C14.005 7.875 14.2196 7.78611 14.3779 7.62787C14.5361 7.46964 14.625 7.25503 14.625 7.03125V4.21875C14.625 3.99497 14.5361 3.78036 14.3779 3.62213C14.2196 3.46389 14.005 3.375 13.7813 3.375H12.6563V2.53125C12.6563 2.30747 12.5674 2.09286 12.4091 1.93463C12.2509 1.77639 12.0363 1.6875 11.8125 1.6875ZM9.5625 3.9375V7.3125H9V3.9375H9.5625ZM10.125 3.9375H11.8125V7.3125H10.125V3.9375ZM12.375 3.9375H12.9375V7.3125H12.375V3.9375ZM9.84375 2.53125C9.84375 2.45666 9.87338 2.38512 9.92613 2.33238C9.97887 2.27963 10.0504 2.25 10.125 2.25H11.8125C11.8871 2.25 11.9586 2.27963 12.0114 2.33238C12.0641 2.38512 12.0938 2.45666 12.0938 2.53125V3.375H9.84375V2.53125ZM7.875 7.03125V4.21875C7.875 4.14416 7.90463 4.07262 7.95738 4.01988C8.01012 3.96713 8.08166 3.9375 8.15625 3.9375H8.4375V7.3125H8.15625C8.08166 7.3125 8.01012 7.28287 7.95738 7.23012C7.90463 7.17738 7.875 7.10584 7.875 7.03125ZM14.0625 4.21875V7.03125C14.0625 7.10584 14.0329 7.17738 13.9801 7.23012C13.9274 7.28287 13.8558 7.3125 13.7813 7.3125H13.5V3.9375H13.7813C13.8558 3.9375 13.9274 3.96713 13.9801 4.01988C14.0329 4.07262 14.0625 4.14416 14.0625 4.21875ZM3.85509 8.63634C3.90633 8.5833 3.93468 8.51226 3.93403 8.43851C3.93339 8.36477 3.90381 8.29423 3.85167 8.24208C3.79952 8.18994 3.72898 8.16036 3.65524 8.15972C3.5815 8.15908 3.51045 8.18742 3.45741 8.23866L2.54531 9.15075C2.36196 9.33312 2.2166 9.55004 2.11763 9.78896C2.01866 10.0279 1.96806 10.2841 1.96875 10.5427C1.8945 13.194 2.15944 13.7152 1.6875 14.3438L0.337501 16.1438C0.292746 16.2034 0.273529 16.2784 0.284078 16.3523C0.294627 16.4261 0.334077 16.4927 0.393751 16.5375C0.453425 16.5823 0.528433 16.6015 0.602276 16.5909C0.676118 16.5804 0.742746 16.5409 0.787501 16.4812L2.1375 14.6813C2.77763 13.8282 2.43816 13.0736 2.53125 10.5427C2.53075 10.3579 2.56688 10.175 2.63755 10.0043C2.70823 9.83365 2.81205 9.67871 2.943 9.54844L3.85509 8.63634ZM6.75 11.6047L7.75013 9.80466C7.88507 9.56003 7.92728 9.27494 7.86901 9.00171C7.81073 8.72847 7.65589 8.48541 7.43288 8.31713C7.33615 8.24461 7.22568 8.19253 7.1082 8.16407C6.99071 8.1356 6.86865 8.13134 6.74946 8.15155C6.63028 8.17176 6.51645 8.21601 6.4149 8.28161C6.31336 8.3472 6.22623 8.43278 6.15881 8.53312L4.26656 11.3518C4.24522 11.3824 4.23018 11.417 4.22234 11.4535C4.21449 11.49 4.214 11.5277 4.22088 11.5644C4.22776 11.6011 4.24188 11.6361 4.26242 11.6673C4.28296 11.6985 4.3095 11.7253 4.34049 11.7461C4.37149 11.7669 4.40632 11.7813 4.44296 11.7886C4.47959 11.7958 4.5173 11.7956 4.55388 11.7881C4.59045 11.7806 4.62517 11.7659 4.656 11.7448C4.68683 11.7238 4.71315 11.6968 4.73344 11.6654L6.62541 8.84644C6.65024 8.80942 6.68235 8.77785 6.71979 8.75365C6.75722 8.72945 6.79919 8.71312 6.84314 8.70568C6.88709 8.69823 6.9321 8.69981 6.97541 8.71033C7.01873 8.72084 7.05945 8.74007 7.09509 8.76684C7.20961 8.85332 7.28914 8.97817 7.3191 9.11852C7.34906 9.25886 7.32744 9.4053 7.25822 9.531L6.22294 11.3946C6.19969 11.4364 6.1875 11.4834 6.1875 11.5312C6.1875 14.9999 4.50647 15.4586 4.43756 15.4758C4.37736 15.4893 4.32335 15.5225 4.284 15.57L2.87775 17.2575C2.83211 17.315 2.81078 17.3881 2.8183 17.4611C2.82583 17.5342 2.86162 17.6014 2.91802 17.6484C2.97443 17.6954 3.04698 17.7185 3.12017 17.7127C3.19337 17.7069 3.26141 17.6728 3.30975 17.6175L4.66256 15.9944C5.09316 15.8445 6.72694 15.0497 6.75 11.6047ZM15.4688 9H9C8.92541 9 8.85387 9.02963 8.80113 9.08238C8.74838 9.13512 8.71875 9.20666 8.71875 9.28125C8.71875 9.35584 8.74838 9.42738 8.80113 9.48012C8.85387 9.53287 8.92541 9.5625 9 9.5625H15.4688C15.5433 9.5625 15.6149 9.53287 15.6676 9.48012C15.7204 9.42738 15.75 9.35584 15.75 9.28125C15.75 9.20666 15.7204 9.13512 15.6676 9.08238C15.6149 9.02963 15.5433 9 15.4688 9ZM15.4688 10.6875H11.25C11.1754 10.6875 11.1039 10.7171 11.0511 10.7699C10.9984 10.8226 10.9688 10.8942 10.9688 10.9688C10.9688 11.0433 10.9984 11.1149 11.0511 11.1676C11.1039 11.2204 11.1754 11.25 11.25 11.25H15.4688C15.5433 11.25 15.6149 11.2204 15.6676 11.1676C15.7204 11.1149 15.75 11.0433 15.75 10.9688C15.75 10.8942 15.7204 10.8226 15.6676 10.7699C15.6149 10.7171 15.5433 10.6875 15.4688 10.6875ZM9.84375 11.25C9.91834 11.25 9.98988 11.2204 10.0426 11.1676C10.0954 11.1149 10.125 11.0433 10.125 10.9688C10.125 10.8942 10.0954 10.8226 10.0426 10.7699C9.98988 10.7171 9.91834 10.6875 9.84375 10.6875H8.15625C8.08166 10.6875 8.01012 10.7171 7.95738 10.7699C7.90463 10.8226 7.875 10.8942 7.875 10.9688C7.875 11.0433 7.90463 11.1149 7.95738 11.1676C8.01012 11.2204 8.08166 11.25 8.15625 11.25H9.84375ZM15.75 12.6562C15.75 12.5817 15.7204 12.5101 15.6676 12.4574C15.6149 12.4046 15.5433 12.375 15.4688 12.375H13.2188C13.1442 12.375 13.0726 12.4046 13.0199 12.4574C12.9671 12.5101 12.9375 12.5817 12.9375 12.6562C12.9375 12.7308 12.9671 12.8024 13.0199 12.8551C13.0726 12.9079 13.1442 12.9375 13.2188 12.9375H15.4688C15.5433 12.9375 15.6149 12.9079 15.6676 12.8551C15.7204 12.8024 15.75 12.7308 15.75 12.6562ZM7.3125 12.6562C7.3125 12.7308 7.34213 12.8024 7.39488 12.8551C7.44762 12.9079 7.51916 12.9375 7.59375 12.9375H11.8125C11.8871 12.9375 11.9586 12.9079 12.0114 12.8551C12.0641 12.8024 12.0938 12.7308 12.0938 12.6562C12.0938 12.5817 12.0641 12.5101 12.0114 12.4574C11.9586 12.4046 11.8871 12.375 11.8125 12.375H7.59375C7.51916 12.375 7.44762 12.4046 7.39488 12.4574C7.34213 12.5101 7.3125 12.5817 7.3125 12.6562ZM9.01828 15.9187C9.05189 15.9547 9.09264 15.9833 9.13791 16.0027C9.18319 16.0221 9.23201 16.0318 9.28125 16.0312C9.80325 16.0312 10.0749 15.4665 10.3328 15.2342C10.3781 15.6701 10.4676 16.0312 10.9688 16.0312C11.27 16.0312 11.5116 15.7638 11.7315 15.5624C11.9017 15.8223 12.2625 16.0312 13.2188 16.0312C13.2933 16.0312 13.3649 16.0016 13.4176 15.9489C13.4704 15.8961 13.5 15.8246 13.5 15.75C13.5 15.6754 13.4704 15.6039 13.4176 15.5511C13.3649 15.4984 13.2933 15.4688 13.2188 15.4688C12.2791 15.4688 12.1984 15.262 12.1677 15.1841C12.146 15.1059 12.0998 15.0367 12.0359 14.9867C11.9719 14.9367 11.8936 14.9085 11.8125 14.9062C11.4584 14.9062 11.1398 15.4288 10.9688 15.4688C10.9505 15.4688 10.9406 15.4668 10.9367 15.4688C10.8627 15.3352 10.9758 14.625 10.4063 14.625C9.96947 14.625 9.73378 15.1071 9.47194 15.3588C9.49191 15.0629 9.54056 14.7052 9.33863 14.4869C9.29551 14.4405 9.24303 14.4037 9.18466 14.379C9.12629 14.3543 9.06336 14.3423 9 14.3438C8.42231 14.3438 7.85334 15.3256 7.56563 15.4688C7.49103 15.4725 7.42098 15.5057 7.37087 15.5611C7.32076 15.6165 7.29471 15.6895 7.29844 15.7641C7.30217 15.8387 7.33538 15.9087 7.39076 15.9588C7.44614 16.0089 7.51916 16.035 7.59375 16.0312C8.04656 16.0312 8.52525 15.176 8.92772 14.9344C8.94516 15.2558 8.81044 15.6937 9.01828 15.9187Z" fill="#697C9F"/>
</g>
<defs>
<clipPath id="clip0_1_3188">
<rect width="18" height="18" fill="white"/>
</clipPath>
</defs>
</svg>
