<svg width="16" height="17" viewBox="0 0 16 17" fill="none" xmlns="http://www.w3.org/2000/svg">
<path d="M11.8125 0.6875H10.125C9.90123 0.6875 9.68661 0.776395 9.52838 0.934629C9.37015 1.09286 9.28125 1.30747 9.28125 1.53125V2.375H8.15625C7.93247 2.375 7.71786 2.46389 7.55963 2.62213C7.4014 2.78036 7.3125 2.99497 7.3125 3.21875V6.03125C7.3125 6.25503 7.4014 6.46964 7.55963 6.62787C7.71786 6.78611 7.93247 6.875 8.15625 6.875H13.7813C14.005 6.875 14.2196 6.78611 14.3779 6.62787C14.5361 6.46964 14.625 6.25503 14.625 6.03125V3.21875C14.625 2.99497 14.5361 2.78036 14.3779 2.62213C14.2196 2.46389 14.005 2.375 13.7813 2.375H12.6563V1.53125C12.6563 1.30747 12.5674 1.09286 12.4091 0.934629C12.2509 0.776395 12.0363 0.6875 11.8125 0.6875ZM9.5625 2.9375V6.3125H9V2.9375H9.5625ZM10.125 2.9375H11.8125V6.3125H10.125V2.9375ZM12.375 2.9375H12.9375V6.3125H12.375V2.9375ZM9.84375 1.53125C9.84375 1.45666 9.87338 1.38512 9.92613 1.33238C9.97887 1.27963 10.0504 1.25 10.125 1.25H11.8125C11.8871 1.25 11.9586 1.27963 12.0114 1.33238C12.0641 1.38512 12.0938 1.45666 12.0938 1.53125V2.375H9.84375V1.53125ZM7.875 6.03125V3.21875C7.875 3.14416 7.90463 3.07262 7.95738 3.01988C8.01012 2.96713 8.08166 2.9375 8.15625 2.9375H8.4375V6.3125H8.15625C8.08166 6.3125 8.01012 6.28287 7.95738 6.23012C7.90463 6.17738 7.875 6.10584 7.875 6.03125ZM14.0625 3.21875V6.03125C14.0625 6.10584 14.0329 6.17738 13.9801 6.23012C13.9274 6.28287 13.8558 6.3125 13.7813 6.3125H13.5V2.9375H13.7813C13.8558 2.9375 13.9274 2.96713 13.9801 3.01988C14.0329 3.07262 14.0625 3.14416 14.0625 3.21875ZM3.85509 7.63634C3.90633 7.5833 3.93468 7.51226 3.93403 7.43851C3.93339 7.36477 3.90381 7.29423 3.85167 7.24208C3.79952 7.18994 3.72898 7.16036 3.65524 7.15972C3.5815 7.15908 3.51045 7.18742 3.45741 7.23866L2.54531 8.15075C2.36196 8.33312 2.2166 8.55004 2.11763 8.78896C2.01866 9.02788 1.96806 9.28405 1.96875 9.54266C1.8945 12.194 2.15944 12.7152 1.6875 13.3438L0.337501 15.1438C0.292746 15.2034 0.273529 15.2784 0.284078 15.3523C0.294627 15.4261 0.334077 15.4927 0.393751 15.5375C0.453425 15.5823 0.528433 15.6015 0.602276 15.5909C0.676118 15.5804 0.742746 15.5409 0.787501 15.4812L2.1375 13.6813C2.77763 12.8282 2.43816 12.0736 2.53125 9.54266C2.53075 9.35794 2.56688 9.17497 2.63755 9.00431C2.70823 8.83365 2.81205 8.67871 2.943 8.54844L3.85509 7.63634ZM6.75 10.6047L7.75013 8.80466C7.88507 8.56003 7.92728 8.27494 7.86901 8.00171C7.81073 7.72847 7.65589 7.48541 7.43288 7.31713C7.33615 7.24461 7.22568 7.19253 7.1082 7.16407C6.99071 7.1356 6.86865 7.13134 6.74946 7.15155C6.63028 7.17176 6.51645 7.21601 6.4149 7.28161C6.31336 7.3472 6.22623 7.43278 6.15881 7.53312L4.26656 10.3518C4.24522 10.3824 4.23018 10.417 4.22234 10.4535C4.21449 10.49 4.214 10.5277 4.22088 10.5644C4.22776 10.6011 4.24188 10.6361 4.26242 10.6673C4.28296 10.6985 4.3095 10.7253 4.34049 10.7461C4.37149 10.7669 4.40632 10.7813 4.44296 10.7886C4.47959 10.7958 4.5173 10.7956 4.55388 10.7881C4.59045 10.7806 4.62517 10.7659 4.656 10.7448C4.68683 10.7238 4.71315 10.6968 4.73344 10.6654L6.62541 7.84644C6.65024 7.80942 6.68235 7.77785 6.71979 7.75365C6.75722 7.72945 6.79919 7.71312 6.84314 7.70568C6.88709 7.69823 6.9321 7.69981 6.97541 7.71033C7.01873 7.72084 7.05945 7.74007 7.09509 7.76684C7.20961 7.85332 7.28914 7.97817 7.3191 8.11852C7.34906 8.25886 7.32744 8.4053 7.25822 8.531L6.22294 10.3946C6.19969 10.4364 6.1875 10.4834 6.1875 10.5312C6.1875 13.9999 4.50647 14.4586 4.43756 14.4758C4.37736 14.4893 4.32335 14.5225 4.284 14.57L2.87775 16.2575C2.83211 16.315 2.81078 16.3881 2.8183 16.4611C2.82583 16.5342 2.86162 16.6014 2.91802 16.6484C2.97443 16.6954 3.04698 16.7185 3.12017 16.7127C3.19337 16.7069 3.26141 16.6728 3.30975 16.6175L4.66256 14.9944C5.09316 14.8445 6.72694 14.0497 6.75 10.6047ZM15.4688 8H9C8.92541 8 8.85387 8.02963 8.80113 8.08238C8.74838 8.13512 8.71875 8.20666 8.71875 8.28125C8.71875 8.35584 8.74838 8.42738 8.80113 8.48012C8.85387 8.53287 8.92541 8.5625 9 8.5625H15.4688C15.5433 8.5625 15.6149 8.53287 15.6676 8.48012C15.7204 8.42738 15.75 8.35584 15.75 8.28125C15.75 8.20666 15.7204 8.13512 15.6676 8.08238C15.6149 8.02963 15.5433 8 15.4688 8ZM15.4688 9.6875H11.25C11.1754 9.6875 11.1039 9.71713 11.0511 9.76988C10.9984 9.82262 10.9688 9.89416 10.9688 9.96875C10.9688 10.0433 10.9984 10.1149 11.0511 10.1676C11.1039 10.2204 11.1754 10.25 11.25 10.25H15.4688C15.5433 10.25 15.6149 10.2204 15.6676 10.1676C15.7204 10.1149 15.75 10.0433 15.75 9.96875C15.75 9.89416 15.7204 9.82262 15.6676 9.76988C15.6149 9.71713 15.5433 9.6875 15.4688 9.6875ZM9.84375 10.25C9.91834 10.25 9.98988 10.2204 10.0426 10.1676C10.0954 10.1149 10.125 10.0433 10.125 9.96875C10.125 9.89416 10.0954 9.82262 10.0426 9.76988C9.98988 9.71713 9.91834 9.6875 9.84375 9.6875H8.15625C8.08166 9.6875 8.01012 9.71713 7.95738 9.76988C7.90463 9.82262 7.875 9.89416 7.875 9.96875C7.875 10.0433 7.90463 10.1149 7.95738 10.1676C8.01012 10.2204 8.08166 10.25 8.15625 10.25H9.84375ZM15.75 11.6562C15.75 11.5817 15.7204 11.5101 15.6676 11.4574C15.6149 11.4046 15.5433 11.375 15.4688 11.375H13.2188C13.1442 11.375 13.0726 11.4046 13.0199 11.4574C12.9671 11.5101 12.9375 11.5817 12.9375 11.6562C12.9375 11.7308 12.9671 11.8024 13.0199 11.8551C13.0726 11.9079 13.1442 11.9375 13.2188 11.9375H15.4688C15.5433 11.9375 15.6149 11.9079 15.6676 11.8551C15.7204 11.8024 15.75 11.7308 15.75 11.6562ZM7.3125 11.6562C7.3125 11.7308 7.34213 11.8024 7.39488 11.8551C7.44762 11.9079 7.51916 11.9375 7.59375 11.9375H11.8125C11.8871 11.9375 11.9586 11.9079 12.0114 11.8551C12.0641 11.8024 12.0938 11.7308 12.0938 11.6562C12.0938 11.5817 12.0641 11.5101 12.0114 11.4574C11.9586 11.4046 11.8871 11.375 11.8125 11.375H7.59375C7.51916 11.375 7.44762 11.4046 7.39488 11.4574C7.34213 11.5101 7.3125 11.5817 7.3125 11.6562ZM9.01828 14.9187C9.05189 14.9547 9.09264 14.9833 9.13791 15.0027C9.18319 15.0221 9.23201 15.0318 9.28125 15.0312C9.80325 15.0312 10.0749 14.4665 10.3328 14.2342C10.3781 14.6701 10.4676 15.0312 10.9688 15.0312C11.27 15.0312 11.5116 14.7638 11.7315 14.5624C11.9017 14.8223 12.2625 15.0312 13.2188 15.0312C13.2933 15.0312 13.3649 15.0016 13.4176 14.9489C13.4704 14.8961 13.5 14.8246 13.5 14.75C13.5 14.6754 13.4704 14.6039 13.4176 14.5511C13.3649 14.4984 13.2933 14.4688 13.2188 14.4688C12.2791 14.4688 12.1984 14.262 12.1677 14.1841C12.146 14.1059 12.0998 14.0367 12.0359 13.9867C11.9719 13.9367 11.8936 13.9085 11.8125 13.9062C11.4584 13.9062 11.1398 14.4288 10.9688 14.4688C10.9505 14.4688 10.9406 14.4668 10.9367 14.4688C10.8627 14.3352 10.9758 13.625 10.4063 13.625C9.96947 13.625 9.73378 14.1071 9.47194 14.3588C9.49191 14.0629 9.54056 13.7052 9.33863 13.4869C9.29551 13.4405 9.24303 13.4037 9.18466 13.379C9.12629 13.3543 9.06336 13.3423 9 13.3438C8.42231 13.3438 7.85334 14.3256 7.56563 14.4688C7.49103 14.4725 7.42098 14.5057 7.37087 14.5611C7.32076 14.6165 7.29471 14.6895 7.29844 14.7641C7.30217 14.8387 7.33538 14.9087 7.39076 14.9588C7.44614 15.0089 7.51916 15.035 7.59375 15.0312C8.04656 15.0312 8.52525 14.176 8.92772 13.9344C8.94516 14.2558 8.81044 14.6937 9.01828 14.9187Z" fill="#0FAC81"/>
</svg>
