<svg width="152" height="152" viewBox="0 0 152 152" fill="none" xmlns="http://www.w3.org/2000/svg">
<path d="M147.542 143.094H142.792V67.3934C142.792 65.4337 141.546 63.7415 139.764 63.2071L98.2626 49.314V152H147.542C150.036 152 151.996 150.04 151.996 147.547C151.995 145.053 150.036 143.094 147.542 143.094ZM133.886 143.094H124.981V125.282H116.075V143.094H107.169V120.829C107.169 118.335 109.128 116.376 111.622 116.376H129.434C131.928 116.376 133.887 118.335 133.887 120.829V143.094H133.886ZM129.434 107.47H111.622C109.128 107.47 107.169 105.511 107.169 103.017C107.169 100.523 109.128 98.5641 111.622 98.5641H129.434C131.928 98.5641 133.887 100.523 133.887 103.017C133.886 105.511 131.927 107.47 129.434 107.47ZM129.434 89.6584H111.622C109.128 89.6584 107.169 87.6987 107.169 85.2053C107.169 82.7112 109.128 80.7522 111.622 80.7522H129.434C131.928 80.7522 133.887 82.7112 133.887 85.2053C133.886 87.6987 131.927 89.6584 129.434 89.6584ZM86.5067 26.9896L15.2591 0.271718C12.2313 -0.797032 9.20312 1.42953 9.20312 4.45795V143.094H4.45312C1.95908 143.094 0 145.053 0 147.547C0 150.041 1.95908 152 4.45312 152H89.3567V31.1758C89.3567 29.3052 88.1989 27.613 86.5067 26.9896ZM44.8266 143.094H27.0147V120.829C27.0147 118.335 28.9738 116.376 31.4679 116.376H44.8269L44.8266 143.094ZM40.3738 107.47H31.4679C28.9738 107.47 27.0147 105.511 27.0147 103.017C27.0147 100.523 28.9738 98.5641 31.4679 98.5641H40.3738C42.8679 98.5641 44.8269 100.523 44.8269 103.017C44.8266 105.511 42.8679 107.47 40.3738 107.47ZM40.3738 89.6584H31.4679C28.9738 89.6584 27.0147 87.6987 27.0147 85.2053C27.0147 82.7112 28.9738 80.7522 31.4679 80.7522H40.3738C42.8679 80.7522 44.8269 82.7112 44.8269 85.2053C44.8266 87.6987 42.8679 89.6584 40.3738 89.6584ZM40.3738 71.8465H31.4679C28.9738 71.8465 27.0147 69.8868 27.0147 67.3934C27.0147 64.8993 28.9738 62.9402 31.4679 62.9402H40.3738C42.8679 62.9402 44.8269 64.8993 44.8269 67.3934C44.8266 69.8868 42.8679 71.8465 40.3738 71.8465ZM40.3738 54.0346H31.4679C28.9738 54.0346 27.0147 52.0749 27.0147 49.5815C27.0147 47.0874 28.9738 45.1283 31.4679 45.1283H40.3738C42.8679 45.1283 44.8269 47.0874 44.8269 49.5815C44.8266 52.0749 42.8679 54.0346 40.3738 54.0346ZM71.5448 143.094H53.7329V116.376H67.092C69.586 116.376 71.5451 118.335 71.5451 120.829L71.5448 143.094ZM67.0917 107.47H58.1857C55.6917 107.47 53.7326 105.511 53.7326 103.017C53.7326 100.523 55.6917 98.5641 58.1857 98.5641H67.0917C69.5857 98.5641 71.5448 100.523 71.5448 103.017C71.5448 105.511 69.5857 107.47 67.0917 107.47ZM67.0917 89.6584H58.1857C55.6917 89.6584 53.7326 87.6987 53.7326 85.2053C53.7326 82.7112 55.6917 80.7522 58.1857 80.7522H67.0917C69.5857 80.7522 71.5448 82.7112 71.5448 85.2053C71.5448 87.6987 69.5857 89.6584 67.0917 89.6584ZM67.0917 71.8465H58.1857C55.6917 71.8465 53.7326 69.8868 53.7326 67.3934C53.7326 64.8993 55.6917 62.9402 58.1857 62.9402H67.0917C69.5857 62.9402 71.5448 64.8993 71.5448 67.3934C71.5448 69.8868 69.5857 71.8465 67.0917 71.8465ZM67.0917 54.0346H58.1857C55.6917 54.0346 53.7326 52.0749 53.7326 49.5815C53.7326 47.0874 55.6917 45.1283 58.1857 45.1283H67.0917C69.5857 45.1283 71.5448 47.0874 71.5448 49.5815C71.5448 52.0749 69.5857 54.0346 67.0917 54.0346Z" fill="#BBBBBB"/>
</svg>
