<svg width="14" height="14" viewBox="0 0 14 14" fill="none" xmlns="http://www.w3.org/2000/svg">
<path d="M12.25 9.84375H10.7188V8.3125C10.7188 8.19647 10.6727 8.08519 10.5906 8.00314C10.5086 7.92109 10.3973 7.875 10.2812 7.875C10.1652 7.875 10.0539 7.92109 9.97189 8.00314C9.88984 8.08519 9.84375 8.19647 9.84375 8.3125V9.84375H8.3125C8.19647 9.84375 8.08519 9.88984 8.00314 9.97189C7.92109 10.0539 7.875 10.1652 7.875 10.2812C7.875 10.3973 7.92109 10.5086 8.00314 10.5906C8.08519 10.6727 8.19647 10.7188 8.3125 10.7188H9.84375V12.25C9.84375 12.366 9.88984 12.4773 9.97189 12.5594C10.0539 12.6414 10.1652 12.6875 10.2812 12.6875C10.3973 12.6875 10.5086 12.6414 10.5906 12.5594C10.6727 12.4773 10.7188 12.366 10.7188 12.25V10.7188H12.25C12.366 10.7188 12.4773 10.6727 12.5594 10.5906C12.6414 10.5086 12.6875 10.3973 12.6875 10.2812C12.6875 10.1652 12.6414 10.0539 12.5594 9.97189C12.4773 9.88984 12.366 9.84375 12.25 9.84375Z" fill="white"/>
<path d="M7 12.6874H2.625C2.50897 12.6874 2.39769 12.6413 2.31564 12.5592C2.23359 12.4772 2.1875 12.3659 2.1875 12.2499C2.18901 10.974 2.69652 9.75079 3.59871 8.8486C4.5009 7.94641 5.72411 7.43889 7 7.43739C7.84561 7.44 8.66375 7.13733 9.30406 6.58501C9.94438 6.03269 10.3638 5.26782 10.4853 4.43099C10.6069 3.59415 10.4223 2.74157 9.96549 2.02994C9.50871 1.31832 8.81044 0.795457 7.99901 0.557458C7.18758 0.319459 6.31751 0.382313 5.54872 0.734469C4.77992 1.08662 4.16405 1.70442 3.8143 2.47431C3.46455 3.2442 3.40441 4.11446 3.64494 4.92514C3.88547 5.73582 4.41051 6.43246 5.12356 6.88701C4.01138 7.27653 3.04749 8.00159 2.36487 8.96216C1.68225 9.92273 1.31455 11.0715 1.3125 12.2499C1.3125 12.598 1.45078 12.9318 1.69692 13.178C1.94306 13.4241 2.2769 13.5624 2.625 13.5624H7C7.11603 13.5624 7.22731 13.5163 7.30936 13.4342C7.39141 13.3522 7.4375 13.2409 7.4375 13.1249C7.4375 13.0089 7.39141 12.8976 7.30936 12.8155C7.22731 12.7335 7.11603 12.6874 7 12.6874ZM4.375 3.93739C4.375 3.41821 4.52895 2.91069 4.81739 2.47902C5.10583 2.04734 5.5158 1.71088 5.99546 1.5122C6.47511 1.31352 7.00291 1.26154 7.51211 1.36283C8.02131 1.46411 8.48904 1.71412 8.85616 2.08123C9.22327 2.44835 9.47328 2.91608 9.57456 3.42528C9.67585 3.93448 9.62386 4.46228 9.42518 4.94193C9.2265 5.42159 8.89005 5.83156 8.45837 6.12C8.02669 6.40843 7.51918 6.56239 7 6.56239C6.30402 6.56169 5.63674 6.28491 5.14461 5.79278C4.65248 5.30064 4.37569 4.63337 4.375 3.93739Z" fill="white"/>
</svg>
