<svg width="50" height="49" viewBox="0 0 50 49" fill="none" xmlns="http://www.w3.org/2000/svg">
<g id="Layer_1" clip-path="url(#clip0_1_24)">
<path id="Vector" d="M37.3583 39.4199C36.4818 39.7935 35.6016 40.1672 34.7251 40.5408" stroke="white" stroke-width="2" stroke-linecap="round" stroke-linejoin="round"/>
<path id="Vector_2" d="M20.6181 42.4091C19.1285 42.8163 17.6087 42.4913 16.104 42.5959" stroke="white" stroke-width="2" stroke-linecap="round" stroke-linejoin="round"/>
<path id="Vector_3" d="M6.88767 39.233C2.72716 40.5109 0.515246 43.2535 0.492676 47.6401" stroke="white" stroke-width="2" stroke-linecap="round" stroke-linejoin="round"/>
<path id="Vector_4" d="M42.4365 39.233C46.4278 40.6379 48.6622 43.317 48.6434 47.6401" stroke="white" stroke-width="2" stroke-linecap="round" stroke-linejoin="round"/>
<path id="Vector_5" d="M20.43 28.5841C22.8677 29.0063 25.3241 28.7858 27.7655 28.7223C29.2627 28.685 29.7178 27.4631 29.4395 24.8476C27.3931 24.8476 25.3241 24.8177 23.2514 24.8625C22.2545 24.885 21.1335 25.2848 20.8626 26.174C20.1705 28.4608 18.8501 30.8334 20.0952 33.2323C21.3554 35.6684 22.5028 38.2242 24.568 40.1672" stroke="white" stroke-width="2" stroke-linecap="round" stroke-linejoin="round"/>
<path id="Vector_6" d="M43.1889 33.8151C43.456 32.8362 44.2234 31.9208 43.4297 30.826C42.2485 30.826 40.9319 30.8073 39.6153 30.8297C37.6291 30.8633 36.8429 31.5845 36.8353 33.6283C36.8353 34.2972 36.2748 34.5325 36.1958 35.1192C35.9513 36.9127 36.8767 38.2055 37.9488 39.3974C38.4755 39.9841 39.2805 40.3241 39.9425 40.7613C43.6103 38.3624 44.5469 36.3896 43.1889 34.002" stroke="white" stroke-width="2" stroke-linecap="round" stroke-linejoin="round"/>
<path id="Vector_7" d="M12.3423 34.002C13.3956 35.8553 12.9781 37.9589 11.2063 39.4086C10.578 39.9243 9.85579 40.3203 9.17867 40.7687C7.65516 39.9654 6.50782 38.8669 5.75923 37.3648C4.63823 35.1117 5.39058 33.8151 7.8282 33.8151C8.83259 33.8151 9.83322 33.8151 10.8376 33.8151C13.0608 33.8151 13.5009 33.2659 13.0608 30.826C11.5937 30.826 10.0815 30.7363 8.58055 30.8521C7.01942 30.9717 6.09403 31.917 6.31974 33.6283" stroke="white" stroke-width="2" stroke-linecap="round" stroke-linejoin="round"/>
<path id="Vector_8" d="M11.7783 39.4199C12.6774 39.7487 13.6442 39.9093 14.4116 40.5408" stroke="white" stroke-width="2" stroke-linecap="round" stroke-linejoin="round"/>
<path id="Vector_9" d="M30.9632 5.23108C29.2666 8.09696 27.4685 10.8918 25.3732 13.627C23.9024 12.0576 22.5444 10.6079 21.1826 9.15438" stroke="white" stroke-width="2" stroke-linecap="round" stroke-linejoin="round"/>
<path id="Vector_10" d="M43.0008 33.8151H36.9819" stroke="white" stroke-width="2" stroke-linecap="round" stroke-linejoin="round"/>
<path id="Vector_11" d="M28.7063 28.7709C29.9552 30.9903 29.6279 33.0118 28.1797 34.966C26.8066 36.8267 25.7571 38.9229 24.5684 40.9144" stroke="white" stroke-width="2" stroke-linecap="round" stroke-linejoin="round"/>
<path id="Vector_12" d="M36.0418 47.2665C35.4624 45.8279 36.0117 44.3109 35.3947 42.7416C34.1345 39.5469 31.9866 37.3574 28.8681 36.5279C26.1069 35.7918 23.0486 35.8329 20.2612 36.5092C16.3828 37.447 14.3665 40.5745 13.1627 44.1129C12.8543 45.0209 13.5013 46.2091 13.095 47.2665" stroke="white" stroke-width="2" stroke-linecap="round" stroke-linejoin="round"/>
<path id="Vector_13" d="M24.7564 0.373657C21.4611 1.19195 18.8505 2.836 17.6053 6.1652C15.5514 11.6616 18.7038 17.1392 24.1997 18.2602C29.7069 19.3811 33.5025 15.9174 34.6875 12.3192C36.6022 6.50896 32.4229 0.396076 26.0693 0.373657C25.6931 0.373657 25.3169 0.373657 24.9408 0.373657" stroke="white" stroke-width="2" stroke-linecap="round" stroke-linejoin="round"/>
</g>
<defs>
<clipPath id="clip0_1_24">
<rect width="48.9029" height="48.0138" fill="white" transform="translate(0.116699)"/>
</clipPath>
</defs>
</svg>
