<svg width="154" height="154" viewBox="0 0 154 154" fill="none" xmlns="http://www.w3.org/2000/svg">
<path d="M51.1328 99.7438V100.762C51.1328 101.517 51.3223 102.259 51.6838 102.922L60.7073 119.465C62.4172 122.6 66.919 122.6 68.6289 119.465L77.6524 102.922C78.0137 102.259 78.203 101.517 78.2031 100.762V99.7438C74.0012 101.371 69.4374 102.266 64.6679 102.266C59.8985 102.266 55.3347 101.371 51.1328 99.7438ZM93.2421 64.6679V48.125H86.8006C81.843 48.125 76.9447 47.0472 72.445 44.9664C67.9452 42.8855 63.9517 39.8513 60.741 36.0739C58.4839 33.4183 54.1963 34.2159 53.0449 37.5056C50.8188 43.8659 44.8158 48.125 38.0771 48.125H36.0938V64.6679C36.0938 80.449 48.8869 93.2421 64.6679 93.2421C80.449 93.2421 93.2421 80.449 93.2421 64.6679Z" fill="#128D6C"/>
<path d="M38.0771 39.1015C40.9775 39.1015 43.57 37.2623 44.5282 34.5245C46.4259 29.1024 51.5659 25.4593 57.3187 25.4593C61.2857 25.4593 65.0391 27.1981 67.6162 30.2297C69.978 33.0127 72.9176 35.2479 76.2306 36.78C79.5436 38.3121 83.1505 39.1043 86.8006 39.1015H96.25L96.6509 38.8008C102.05 34.7516 105.273 28.3047 105.273 21.5561C105.273 9.66981 95.6036 0 83.7173 0H72.5048C65.2656 0 58.2502 2.0787 52.1861 6.01562H50.7234C39.3398 6.01562 30.0781 15.2773 30.0781 26.6612C30.0781 31.2127 31.5444 35.537 34.2476 39.1015H38.0771ZM101.363 115.55V113.394C101.36 110.71 102.16 108.086 103.661 105.859L87.1871 101.741C87.0471 103.669 86.4972 105.545 85.574 107.243L76.5506 123.786C74.1771 128.137 69.6242 130.84 64.6679 130.84C59.7117 130.84 55.1587 128.137 52.7856 123.786L43.7622 107.243C42.8388 105.545 42.2887 103.669 42.1488 101.741L21.6439 106.867C15.4582 108.406 9.96602 111.972 6.0432 116.996C2.12039 122.021 -0.00710079 128.214 1.78061e-05 134.588V149.488C1.78061e-05 151.98 2.02006 154 4.51173 154H18.0469V142.871C18.0469 140.379 20.0669 138.359 22.5586 138.359C25.0503 138.359 27.0703 140.379 27.0703 142.871V154H94.7677C93.175 151.26 92.3373 148.146 92.3398 144.976V133.433C92.3365 129.954 93.1514 126.522 94.7189 123.416C96.2864 120.309 98.5624 117.615 101.363 115.55ZM140.465 120.914V113.394C140.465 110.903 138.445 108.883 135.953 108.883H114.898C112.407 108.883 110.387 110.903 110.387 113.394V120.914C104.998 122.71 101.363 127.753 101.363 133.433V144.976C101.363 149.96 105.403 154 110.387 154H140.465C145.448 154 149.488 149.96 149.488 144.976V133.433C149.488 127.753 145.854 122.71 140.465 120.914ZM131.075 99.8593L133.34 91.4095C136.018 88.1953 145.14 76.4215 149.43 60.414C154.269 42.3518 154.007 26.7382 153.994 26.0822C153.92 22.5282 149.957 20.451 146.993 22.413C146.407 22.8007 132.565 32.1658 126.207 54.0964C121.579 70.0597 123.813 84.9276 124.61 89.1244L121.733 99.8593H131.075Z" fill="#128D6C"/>
</svg>
