<svg width="50" height="42" viewBox="0 0 50 42" fill="none" xmlns="http://www.w3.org/2000/svg">
<path d="M38.0238 10.1122C37.3015 7.225 35.6353 4.66186 33.2899 2.82978C30.9444 0.997708 28.0541 0.00173036 25.0779 2.2526e-06C22.1017 -0.00172585 19.2103 0.990895 16.8627 2.82024C14.5151 4.64959 12.846 7.2108 12.1203 10.0972C8.69743 10.4184 5.52984 12.0459 3.27552 14.6415C1.0212 17.2371 -0.146587 20.6014 0.0147412 24.0356C0.176069 27.4697 1.65411 30.7097 4.14184 33.0826C6.62957 35.4555 9.93578 36.7788 13.3737 36.7777H18.3873C18.8305 36.7777 19.2556 36.6017 19.569 36.2883C19.8824 35.9748 20.0585 35.5498 20.0585 35.1065C20.0585 34.6633 19.8824 34.2382 19.569 33.9248C19.2556 33.6114 18.8305 33.4354 18.3873 33.4354H13.3737C12.0569 33.4392 10.7523 33.1836 9.53426 32.6833C8.31624 32.1829 7.2087 31.4475 6.27488 30.5191C4.38894 28.6442 3.32507 26.0968 3.31731 23.4375C3.30956 20.7781 4.35855 18.2246 6.23352 16.3386C8.10849 14.4527 10.6558 13.3888 13.3152 13.3811C13.744 13.4133 14.1695 13.2852 14.5092 13.0215C14.8489 12.7578 15.0785 12.3773 15.1535 11.9539C15.4938 9.56751 16.6836 7.38403 18.5045 5.80444C20.3253 4.22485 22.6549 3.35519 25.0654 3.35519C27.4759 3.35519 29.8054 4.22485 31.6263 5.80444C33.4471 7.38403 34.6369 9.56751 34.9772 11.9539C35.0646 12.3626 35.2912 12.7283 35.6182 12.9886C35.9452 13.2489 36.3525 13.3876 36.7704 13.3811C39.4297 13.3811 41.9802 14.4375 43.8606 16.3179C45.7411 18.1984 46.7975 20.7488 46.7975 23.4082C46.7975 26.0676 45.7411 28.618 43.8606 30.4985C41.9802 32.3789 39.4297 33.4354 36.7704 33.4354H31.7568C31.3136 33.4354 30.8885 33.6114 30.5751 33.9248C30.2617 34.2382 30.0856 34.6633 30.0856 35.1065C30.0856 35.5498 30.2617 35.9748 30.5751 36.2883C30.8885 36.6017 31.3136 36.7777 31.7568 36.7777H36.7704C40.1832 36.742 43.4531 35.4025 45.91 33.0336C48.367 30.6647 49.825 27.4459 49.9852 24.0367C50.1455 20.6275 48.9959 17.2861 46.7719 14.6972C44.548 12.1083 41.4181 10.4679 38.0238 10.1122Z" fill="#D6D6D6"/>
<path d="M32.2465 24.5897C32.5617 24.8941 32.9838 25.0625 33.422 25.0587C33.8602 25.0549 34.2793 24.8792 34.5892 24.5693C34.899 24.2595 35.0748 23.8403 35.0786 23.4021C35.0824 22.9639 34.9139 22.5418 34.6095 22.2266L26.2536 13.8706C25.9402 13.5574 25.5152 13.3813 25.072 13.3813C24.6289 13.3813 24.2039 13.5574 23.8905 13.8706L15.5346 22.2266C15.2301 22.5418 15.0617 22.9639 15.0655 23.4021C15.0693 23.8403 15.2451 24.2595 15.5549 24.5693C15.8648 24.8792 16.2839 25.0549 16.7221 25.0587C17.1603 25.0625 17.5824 24.8941 17.8976 24.5897L23.4008 19.0864V40.12C23.4008 40.5633 23.5769 40.9883 23.8903 41.3018C24.2037 41.6152 24.6288 41.7912 25.072 41.7912C25.5153 41.7912 25.9403 41.6152 26.2538 41.3018C26.5672 40.9883 26.7432 40.5633 26.7432 40.12V19.0864L32.2465 24.5897Z" fill="#D6D6D6"/>
</svg>
